<?xml version="1.0" encoding="utf-8"?>
<!-- Generator: Adobe Illustrator 19.1.0, SVG Export Plug-In . SVG Version: 6.00 Build 0)  -->
<svg version="1.1" id="Layer_1" xmlns="http://www.w3.org/2000/svg" xmlns:xlink="http://www.w3.org/1999/xlink" x="0px" y="0px"
	 viewBox="0 0 1080 1080" style="enable-background:new 0 0 1080 1080;" xml:space="preserve">
<style type="text/css">
	.st0{fill:#FF0000;}
	.st1{fill:#FFFF00;}
	.st2{fill:#0000FF;}
</style>
<g>
	<g>
		<polygon class="st2" points="0,846.2 270,1080 0,1080 		"/>
		<polygon class="st2" points="270,846.2 540,1080 270,1080 		"/>
		<polygon class="st2" points="540,846.2 810,1080 540,1080 		"/>
		<polygon class="st2" points="810,846.2 1080,1080 810,1080 		"/>
	</g>
	<g>
		<polygon class="st2" points="0,613.9 270,847.7 0,847.7 		"/>
		<polygon class="st2" points="270,613.9 540,847.7 270,847.7 		"/>
		<polygon class="st2" points="540,613.9 810,847.7 540,847.7 		"/>
		<polygon class="st2" points="810,613.9 1080,847.7 810,847.7 		"/>
	</g>
	<g>
		<polygon class="st2" points="0,381.7 270,615.5 0,615.5 		"/>
		<polygon class="st2" points="270,381.7 540,615.5 270,615.5 		"/>
		<polygon class="st2" points="540,381.7 810,615.5 540,615.5 		"/>
		<polygon class="st2" points="810,381.7 1080,615.5 810,615.5 		"/>
	</g>
	<g>
		<polygon class="st2" points="0,149.4 270,383.2 0,383.2 		"/>
		<polygon class="st2" points="270,149.4 540,383.2 270,383.2 		"/>
		<polygon class="st2" points="540,149.4 810,383.2 540,383.2 		"/>
		<polygon class="st2" points="810,149.4 1080,383.2 810,383.2 		"/>
	</g>
	<g>
		<polygon class="st2" points="0,-82.8 270,151 0,151 		"/>
		<polygon class="st2" points="270,-82.8 540,151 270,151 		"/>
		<polygon class="st2" points="540,-82.8 810,151 540,151 		"/>
		<polygon class="st2" points="810,-82.8 1080,151 810,151 		"/>
	</g>
</g>
</svg>
