<?xml version="1.0" encoding="utf-8"?>
<!-- Generator: Adobe Illustrator 19.1.0, SVG Export Plug-In . SVG Version: 6.00 Build 0)  -->
<svg version="1.1" id="Layer_1" xmlns="http://www.w3.org/2000/svg" xmlns:xlink="http://www.w3.org/1999/xlink" x="0px" y="0px"
	 viewBox="0 0 1080 1080" style="enable-background:new 0 0 1080 1080;" xml:space="preserve">
<style type="text/css">
	.st0{fill:#FF0000;}
	.st1{fill:#FFFF00;}
	.st2{fill:#0000FF;}
</style>
<g>
	
		<rect x="30.8" y="895.3" transform="matrix(0.7071 -0.7071 0.7071 0.7071 -655.7607 360.4863)" class="st2" width="153" height="153"/>
	
		<rect x="247.1" y="895.3" transform="matrix(0.7071 -0.7071 0.7071 0.7071 -592.3881 513.4812)" class="st2" width="153" height="153"/>
	
		<rect x="463.5" y="895.3" transform="matrix(0.7071 -0.7071 0.7071 0.7071 -529.0156 666.4761)" class="st2" width="153" height="153"/>
	
		<rect x="679.9" y="895.3" transform="matrix(0.7071 -0.7071 0.7071 0.7071 -465.643 819.4709)" class="st2" width="153" height="153"/>
	
		<rect x="896.2" y="895.3" transform="matrix(0.7071 -0.7071 0.7071 0.7071 -402.2704 972.4658)" class="st2" width="153" height="153"/>
	
		<rect x="30.8" y="679" transform="matrix(0.7071 -0.7071 0.7071 0.7071 -502.7658 297.1137)" class="st2" width="153" height="153"/>
	
		<rect x="247.1" y="679" transform="matrix(0.7071 -0.7071 0.7071 0.7071 -439.3932 450.1086)" class="st2" width="153" height="153"/>
	
		<rect x="463.5" y="679" transform="matrix(0.7071 -0.7071 0.7071 0.7071 -376.0207 603.1035)" class="st2" width="153" height="153"/>
	
		<rect x="679.9" y="679" transform="matrix(0.7071 -0.7071 0.7071 0.7071 -312.6481 756.0984)" class="st2" width="153" height="153"/>
	
		<rect x="896.2" y="679" transform="matrix(0.7071 -0.7071 0.7071 0.7071 -249.2755 909.0933)" class="st2" width="153" height="153"/>
	
		<rect x="30.8" y="463.5" transform="matrix(0.7071 -0.7071 0.7071 0.7071 -350.4204 234.0102)" class="st2" width="153" height="153"/>
	
		<rect x="247.1" y="463.5" transform="matrix(0.7071 -0.7071 0.7071 0.7071 -287.0479 387.0051)" class="st2" width="153" height="153"/>
	<rect x="463.5" y="463.5" transform="matrix(0.7071 -0.7071 0.7071 0.7071 -223.6753 540)" class="st2" width="153" height="153"/>
	
		<rect x="679.9" y="463.5" transform="matrix(0.7071 -0.7071 0.7071 0.7071 -160.3028 692.9949)" class="st2" width="153" height="153"/>
	
		<rect x="896.2" y="463.5" transform="matrix(0.7071 -0.7071 0.7071 0.7071 -96.9302 845.9898)" class="st2" width="153" height="153"/>
	
		<rect x="30.8" y="247.1" transform="matrix(0.7071 -0.7071 0.7071 0.7071 -197.4256 170.6377)" class="st2" width="153" height="153"/>
	
		<rect x="247.1" y="247.1" transform="matrix(0.7071 -0.7071 0.7071 0.7071 -134.053 323.6326)" class="st2" width="153" height="153"/>
	
		<rect x="463.5" y="247.1" transform="matrix(0.7071 -0.7071 0.7071 0.7071 -70.6804 476.6274)" class="st2" width="153" height="153"/>
	
		<rect x="679.9" y="247.1" transform="matrix(0.7071 -0.7071 0.7071 0.7071 -7.3079 629.6223)" class="st2" width="153" height="153"/>
	
		<rect x="896.2" y="247.1" transform="matrix(0.7071 -0.7071 0.7071 0.7071 56.0647 782.6172)" class="st2" width="153" height="153"/>
	
		<rect x="30.8" y="31.7" transform="matrix(0.7071 -0.7071 0.7071 0.7071 -45.0802 107.5342)" class="st2" width="153" height="153"/>
	
		<rect x="247.1" y="31.7" transform="matrix(0.7071 -0.7071 0.7071 0.7071 18.2923 260.5291)" class="st2" width="153" height="153"/>
	
		<rect x="463.5" y="31.7" transform="matrix(0.7071 -0.7071 0.7071 0.7071 81.6649 413.5239)" class="st2" width="153" height="153"/>
	
		<rect x="679.9" y="31.7" transform="matrix(0.7071 -0.7071 0.7071 0.7071 145.0374 566.5188)" class="st2" width="153" height="153"/>
	
		<rect x="896.2" y="31.7" transform="matrix(0.7071 -0.7071 0.7071 0.7071 208.41 719.5137)" class="st2" width="153" height="153"/>
</g>
</svg>
