<?xml version="1.0" encoding="utf-8"?>
<!-- Generator: Adobe Illustrator 19.1.0, SVG Export Plug-In . SVG Version: 6.00 Build 0)  -->
<svg version="1.1" id="Layer_1" xmlns="http://www.w3.org/2000/svg" xmlns:xlink="http://www.w3.org/1999/xlink" x="0px" y="0px"
	 viewBox="0 0 1080 1080" style="enable-background:new 0 0 1080 1080;" xml:space="preserve">
<style type="text/css">
	.st0{fill:#FF0000;}
	.st1{fill:#FFFF00;}
	.st2{fill:#0000FF;}
</style>
<g>
	
		<rect x="30.8" y="895.3" transform="matrix(0.7071 -0.7071 0.7071 0.7071 -655.7606 360.4864)" class="st1" width="153" height="153"/>
	
		<rect x="247.1" y="895.3" transform="matrix(0.7071 -0.7071 0.7071 0.7071 -592.3881 513.4813)" class="st1" width="153" height="153"/>
	
		<rect x="463.5" y="895.3" transform="matrix(0.7071 -0.7071 0.7071 0.7071 -529.0155 666.4762)" class="st1" width="153" height="153"/>
	
		<rect x="679.9" y="895.3" transform="matrix(0.7071 -0.7071 0.7071 0.7071 -465.6429 819.4711)" class="st1" width="153" height="153"/>
	
		<rect x="896.2" y="895.3" transform="matrix(0.7071 -0.7071 0.7071 0.7071 -402.2704 972.4659)" class="st1" width="153" height="153"/>
	
		<rect x="30.8" y="679" transform="matrix(0.7071 -0.7071 0.7071 0.7071 -502.7657 297.1139)" class="st1" width="153" height="153"/>
	
		<rect x="247.1" y="679" transform="matrix(0.7071 -0.7071 0.7071 0.7071 -439.3932 450.1087)" class="st1" width="153" height="153"/>
	
		<rect x="463.5" y="679" transform="matrix(0.7071 -0.7071 0.7071 0.7071 -376.0206 603.1036)" class="st1" width="153" height="153"/>
	
		<rect x="679.9" y="679" transform="matrix(0.7071 -0.7071 0.7071 0.7071 -312.648 756.0985)" class="st1" width="153" height="153"/>
	
		<rect x="896.2" y="679" transform="matrix(0.7071 -0.7071 0.7071 0.7071 -249.2755 909.0934)" class="st1" width="153" height="153"/>
	
		<rect x="30.8" y="463.5" transform="matrix(0.7071 -0.7071 0.7071 0.7071 -350.4204 234.0103)" class="st1" width="153" height="153"/>
	
		<rect x="247.1" y="463.5" transform="matrix(0.7071 -0.7071 0.7071 0.7071 -287.0478 387.0052)" class="st1" width="153" height="153"/>
	
		<rect x="463.5" y="463.5" transform="matrix(0.7071 -0.7071 0.7071 0.7071 -223.6753 540.0001)" class="st1" width="153" height="153"/>
	
		<rect x="679.9" y="463.5" transform="matrix(0.7071 -0.7071 0.7071 0.7071 -160.3027 692.995)" class="st1" width="153" height="153"/>
	
		<rect x="896.2" y="463.5" transform="matrix(0.7071 -0.7071 0.7071 0.7071 -96.9302 845.9899)" class="st1" width="153" height="153"/>
	
		<rect x="30.8" y="247.1" transform="matrix(0.7071 -0.7071 0.7071 0.7071 -197.4255 170.6378)" class="st1" width="153" height="153"/>
	
		<rect x="247.1" y="247.1" transform="matrix(0.7071 -0.7071 0.7071 0.7071 -134.0529 323.6327)" class="st1" width="153" height="153"/>
	
		<rect x="463.5" y="247.1" transform="matrix(0.7071 -0.7071 0.7071 0.7071 -70.6804 476.6276)" class="st1" width="153" height="153"/>
	
		<rect x="679.9" y="247.1" transform="matrix(0.7071 -0.7071 0.7071 0.7071 -7.3078 629.6224)" class="st1" width="153" height="153"/>
	
		<rect x="896.2" y="247.1" transform="matrix(0.7071 -0.7071 0.7071 0.7071 56.0647 782.6174)" class="st1" width="153" height="153"/>
	
		<rect x="30.8" y="31.7" transform="matrix(0.7071 -0.7071 0.7071 0.7071 -45.0802 107.5343)" class="st1" width="153" height="153"/>
	
		<rect x="247.1" y="31.7" transform="matrix(0.7071 -0.7071 0.7071 0.7071 18.2924 260.5292)" class="st1" width="153" height="153"/>
	
		<rect x="463.5" y="31.7" transform="matrix(0.7071 -0.7071 0.7071 0.7071 81.6649 413.524)" class="st1" width="153" height="153"/>
	
		<rect x="679.9" y="31.7" transform="matrix(0.7071 -0.7071 0.7071 0.7071 145.0375 566.5189)" class="st1" width="153" height="153"/>
	
		<rect x="896.2" y="31.7" transform="matrix(0.7071 -0.7071 0.7071 0.7071 208.4101 719.5139)" class="st1" width="153" height="153"/>
</g>
</svg>
