<?xml version="1.0" encoding="utf-8"?>
<!-- Generator: Adobe Illustrator 19.1.0, SVG Export Plug-In . SVG Version: 6.00 Build 0)  -->
<svg version="1.1" id="Layer_1" xmlns="http://www.w3.org/2000/svg" xmlns:xlink="http://www.w3.org/1999/xlink" x="0px" y="0px"
	 viewBox="0 0 1080 1080" style="enable-background:new 0 0 1080 1080;" xml:space="preserve">
<style type="text/css">
	.st0{fill:#FF0000;}
	.st1{fill:#FFFF00;}
	.st2{fill:#0000FF;}
</style>
<g>
	<polygon class="st1" points="977.6,71.9 977.7,71.9 977.7,71.9 896.1,35.4 847.9,13.9 816.9,0 770.5,20.8 540,123.9 423.8,71.9 
		423.8,71.9 423.8,71.9 342.3,35.4 294,13.9 263.1,0 216.6,20.8 -67.8,148.1 -14.1,267.9 263.1,143.9 539.6,267.6 539.7,267.9 
		540,267.8 540.3,267.9 540.4,267.6 816.9,143.9 1094.1,267.9 1147.8,148.1 	"/>
	<polygon class="st1" points="977.6,342.6 977.7,342.6 977.7,342.6 896.1,306.1 847.9,284.6 816.9,270.7 770.5,291.5 540,394.6 
		423.8,342.6 423.8,342.6 423.8,342.6 342.3,306.1 294,284.6 263.1,270.7 216.6,291.5 -67.8,418.8 -14.1,538.6 263.1,414.6 
		539.6,538.3 539.7,538.6 540,538.5 540.3,538.6 540.4,538.3 816.9,414.6 1094.1,538.6 1147.8,418.8 	"/>
	<polygon class="st1" points="977.6,613.3 977.7,613.3 977.7,613.3 896.1,576.8 847.9,555.3 816.9,541.4 770.5,562.2 540,665.3 
		423.8,613.3 423.8,613.3 423.8,613.3 342.3,576.8 294,555.3 263.1,541.4 216.6,562.2 -67.8,689.5 -14.1,809.3 263.1,685.2 
		539.6,809 539.7,809.3 540,809.2 540.3,809.3 540.4,809 816.9,685.2 1094.1,809.3 1147.8,689.5 	"/>
	<polygon class="st1" points="977.6,884 977.7,884 977.7,884 896.1,847.5 847.9,826 816.9,812.1 770.5,832.9 540,936 423.8,884 
		423.8,884 423.8,884 342.3,847.5 294,826 263.1,812.1 216.6,832.9 -67.8,960.2 -14.1,1080 263.1,955.9 539.6,1079.7 539.7,1080 
		540,1079.9 540.3,1080 540.4,1079.7 816.9,955.9 1094.1,1080 1147.8,960.2 	"/>
</g>
</svg>
